<svg xmlns="http://www.w3.org/2000/svg" viewBox="0 0 1280 470">
  <defs>
    <marker id="arr" viewBox="0 0 10 10" refX="8" refY="5" markerWidth="7" markerHeight="7" orient="auto-start-reverse">
      <path d="M0 0 L10 5 L0 10 z" fill="#FF7700"/>
    </marker>
  </defs>
  <rect width="1280" height="470" fill="#0B0C0E"/>
  <text x="60" y="52" font-family="Menlo,Consolas,monospace" font-size="22" letter-spacing="5" fill="#F5F5F7" opacity="0.6">HOW IT FLOWS</text>
  <!-- inbound lane -->
  <text x="60" y="118" font-family="Menlo,Consolas,monospace" font-size="24" letter-spacing="3" fill="#FF7700">INBOUND</text>
  <g font-family="Arial,Helvetica,sans-serif" font-size="23" fill="#F5F5F7" text-anchor="middle">
    <rect x="60" y="140" width="220" height="66" rx="10" fill="#1E2025"/>
    <text x="170" y="181">SES Inbound</text>
    <rect x="360" y="140" width="220" height="66" rx="10" fill="#1E2025"/>
    <text x="470" y="181">S3 &#183; 24h TTL</text>
    <rect x="660" y="140" width="260" height="66" rx="10" fill="#1E2025"/>
    <text x="790" y="181">SRS Forwarder (arm64)</text>
    <rect x="1000" y="140" width="220" height="66" rx="10" fill="#1E2025"/>
    <text x="1110" y="181">Gmail / Outlook</text>
  </g>
  <g stroke="#FF7700" stroke-width="3">
    <line x1="280" y1="173" x2="352" y2="173" marker-end="url(#arr)"/>
    <line x1="580" y1="173" x2="652" y2="173" marker-end="url(#arr)"/>
    <line x1="920" y1="173" x2="992" y2="173" marker-end="url(#arr)"/>
  </g>
  <!-- outbound lane -->
  <text x="60" y="288" font-family="Menlo,Consolas,monospace" font-size="24" letter-spacing="3" fill="#FF7700">OUTBOUND</text>
  <g font-family="Arial,Helvetica,sans-serif" font-size="23" fill="#F5F5F7" text-anchor="middle">
    <rect x="60" y="310" width="220" height="66" rx="10" fill="#1E2025"/>
    <text x="170" y="351">POST /v1/emails</text>
    <rect x="360" y="310" width="260" height="66" rx="10" fill="#1E2025"/>
    <text x="490" y="351">API Lambda + SSM keys</text>
    <rect x="700" y="310" width="260" height="66" rx="10" fill="#1E2025"/>
    <text x="830" y="351">SESv2 SendEmail</text>
    <rect x="1040" y="310" width="180" height="66" rx="10" fill="#FF7700"/>
    <text x="1130" y="351" fill="#0B0C0E">200 sent</text>
  </g>
  <g stroke="#FF7700" stroke-width="3">
    <line x1="280" y1="343" x2="352" y2="343" marker-end="url(#arr)"/>
    <line x1="620" y1="343" x2="692" y2="343" marker-end="url(#arr)"/>
    <line x1="960" y1="343" x2="1032" y2="343" marker-end="url(#arr)"/>
  </g>
  <text x="60" y="430" font-family="Menlo,Consolas,monospace" font-size="20" fill="#F5F5F7" opacity="0.45">s3 + lambda + apigw + ses + cloudwatch alarms &#183; zero idle cost</text>
</svg>
